<svg width="191" height="54" viewBox="0 0 191 54" fill="none" xmlns="http://www.w3.org/2000/svg">
    <path
        d="M64.98 34.964C64.704 35.36 64.302 35.558 63.774 35.558C63.294 35.558 62.796 35.402 62.28 35.09C61.812 34.814 61.548 34.544 61.488 34.28C61.464 34.184 61.452 34.094 61.452 34.01C61.452 33.818 61.53 33.602 61.686 33.362C61.854 33.122 61.932 32.912 61.92 32.732L61.38 26.684L58.284 33.668C58.248 33.764 58.23 33.878 58.23 34.01C58.23 34.106 58.242 34.256 58.266 34.46C58.302 34.664 58.32 34.82 58.32 34.928C58.32 35.204 58.212 35.414 57.996 35.558C57.684 35.774 57.318 35.882 56.898 35.882C56.478 35.882 56.094 35.768 55.746 35.54C55.41 35.324 55.2 35.036 55.116 34.676C55.092 34.568 55.08 34.472 55.08 34.388C55.08 34.304 55.092 34.202 55.116 34.082C55.14 33.962 55.152 33.872 55.152 33.812C55.152 33.74 55.14 33.668 55.116 33.596L52.524 26.684L52.776 33.2C52.788 33.368 52.83 33.608 52.902 33.92C52.974 34.22 53.01 34.442 53.01 34.586C53.01 35.03 52.68 35.378 52.02 35.63C51.936 35.654 51.834 35.666 51.714 35.666C51.342 35.666 50.958 35.54 50.562 35.288C50.106 35.012 49.812 34.652 49.68 34.208C49.656 34.136 49.644 34.07 49.644 34.01C49.644 33.89 49.716 33.758 49.86 33.614C50.004 33.458 50.076 33.32 50.076 33.2L49.86 22.94C49.86 22.772 49.8 22.562 49.68 22.31C49.56 22.046 49.5 21.848 49.5 21.716C49.5 21.512 49.608 21.296 49.824 21.068C50.04 20.828 50.418 20.708 50.958 20.708C51.75 20.708 52.38 20.9 52.848 21.284C53.112 21.5 53.244 21.728 53.244 21.968C53.244 22.004 53.238 22.058 53.226 22.13C53.226 22.202 53.226 22.256 53.226 22.292C53.226 22.4 53.244 22.496 53.28 22.58L56.844 31.22L60.84 22.04C60.888 21.932 60.912 21.806 60.912 21.662C60.912 21.614 60.906 21.542 60.894 21.446C60.894 21.35 60.894 21.278 60.894 21.23C60.894 20.954 61.02 20.72 61.272 20.528C61.476 20.372 61.746 20.294 62.082 20.294C62.598 20.294 63.096 20.45 63.576 20.762C64.068 21.074 64.308 21.428 64.296 21.824C64.284 22.016 64.194 22.178 64.026 22.31C63.858 22.43 63.78 22.544 63.792 22.652L64.548 33.272C64.56 33.392 64.656 33.602 64.836 33.902C65.016 34.19 65.106 34.424 65.106 34.604C65.106 34.724 65.064 34.844 64.98 34.964Z"
        fill="#910C94" />
    <path
        d="M74.2245 34.244C74.0445 34.832 73.6005 35.126 72.8925 35.126C72.6525 35.126 72.4605 35.084 72.3165 35C72.1245 34.868 71.9925 34.604 71.9205 34.208C71.7765 33.524 71.6325 32.99 71.4885 32.606C71.4525 33.266 71.0925 33.938 70.4085 34.622C69.7245 35.294 69.0345 35.63 68.3385 35.63C67.4625 35.63 66.8565 35.048 66.5205 33.884C66.4005 33.452 66.3405 33.044 66.3405 32.66C66.3405 31.544 66.9105 30.59 68.0505 29.798C68.9865 29.246 69.9285 28.7 70.8765 28.16C70.9245 27.956 70.9485 27.758 70.9485 27.566C70.9485 27.194 70.8465 26.978 70.6425 26.918C70.4385 26.846 70.2645 26.81 70.1205 26.81C69.8685 26.81 69.6585 26.894 69.4905 27.062C69.3345 27.218 69.1845 27.368 69.0405 27.512C68.8965 27.608 68.7105 27.83 68.4825 28.178C68.3025 28.454 68.1045 28.604 67.8885 28.628C67.5765 28.664 67.2945 28.556 67.0425 28.304C66.7905 28.052 66.6645 27.758 66.6645 27.422C66.6645 27.23 66.7125 27.056 66.8085 26.9C67.0845 26.444 67.4985 26.048 68.0505 25.712C68.8905 25.208 69.9405 24.956 71.2005 24.956C72.0045 24.956 72.5565 25.34 72.8565 26.108C73.0485 26.624 73.1925 27.59 73.2885 29.006C73.3965 30.722 73.5285 31.976 73.6845 32.768C73.7085 32.924 73.8105 33.122 73.9905 33.362C74.1705 33.602 74.2605 33.812 74.2605 33.992C74.2605 34.076 74.2485 34.16 74.2245 34.244ZM71.0925 29.816C70.7325 30.008 70.3725 30.206 70.0125 30.41C69.6645 30.614 69.3405 30.884 69.0405 31.22C68.6085 31.712 68.3925 32.132 68.3925 32.48C68.3925 32.768 68.5005 33.068 68.7165 33.38C68.8365 33.548 68.9685 33.632 69.1125 33.632C69.4245 33.632 69.7605 33.284 70.1205 32.588C70.4925 31.892 70.8165 30.968 71.0925 29.816Z"
        fill="#910C94" />
    <path
        d="M78.1678 24.2C78.0838 24.392 77.8498 24.488 77.4658 24.488C77.1898 24.488 76.9258 24.428 76.6738 24.308C76.3498 24.164 76.1878 23.972 76.1878 23.732C76.1878 23.66 76.2058 23.558 76.2418 23.426C76.2778 23.294 76.2958 23.204 76.2958 23.156C76.2958 23.084 76.2838 22.952 76.2598 22.76C76.2358 22.568 76.2238 22.424 76.2238 22.328C76.2238 22.052 76.2958 21.848 76.4398 21.716C76.6318 21.524 76.8838 21.428 77.1958 21.428C77.4478 21.428 77.6878 21.506 77.9158 21.662C78.1438 21.818 78.2578 22.022 78.2578 22.274C78.2578 22.382 78.2218 22.556 78.1498 22.796C78.0778 23.036 78.0478 23.216 78.0598 23.336C78.0598 23.444 78.0838 23.558 78.1318 23.678C78.1918 23.798 78.2218 23.894 78.2218 23.966C78.2218 24.038 78.2038 24.116 78.1678 24.2ZM78.1678 27.89C78.1678 31.622 78.1738 32.906 78.1858 31.742C78.1618 33.542 78.0058 34.934 77.7178 35.918C77.3338 37.25 76.7158 37.97 75.8638 38.078C75.4918 38.126 75.0838 38.042 74.6398 37.826C74.1958 37.622 73.9738 37.382 73.9738 37.106C73.9738 37.01 74.0098 36.914 74.0818 36.818C74.2138 36.65 74.4358 36.59 74.7478 36.638C75.0478 36.686 75.2518 36.674 75.3598 36.602C75.7438 36.338 75.9358 34.172 75.9358 30.104C75.9358 29.156 75.9238 28.016 75.8998 26.684C75.8998 26.576 75.8638 26.39 75.7918 26.126C75.7198 25.85 75.6838 25.646 75.6838 25.514C75.6838 25.094 76.0198 24.884 76.6918 24.884C77.2678 24.884 77.6878 25.016 77.9518 25.28C78.1678 25.496 78.2758 25.808 78.2758 26.216C78.2758 26.408 78.2578 26.69 78.2218 27.062C78.1858 27.422 78.1678 27.698 78.1678 27.89Z"
        fill="#910C94" />
    <path
        d="M86.3298 33.11C86.2338 33.566 85.9098 34.052 85.3578 34.568C85.2738 34.7 84.9438 34.874 84.3678 35.09C83.7078 35.342 83.1378 35.45 82.6578 35.414C81.7578 35.354 81.0498 34.838 80.5338 33.866C80.0658 32.966 79.8318 31.862 79.8318 30.554C79.8318 29.138 80.0958 27.896 80.6238 26.828C81.2118 25.652 81.9978 24.992 82.9818 24.848C83.1738 24.824 83.3598 24.812 83.5398 24.812C84.9678 24.812 85.7538 25.688 85.8978 27.44C85.9698 28.244 85.6518 29.12 84.9438 30.068C84.1758 31.112 83.1918 31.844 81.9918 32.264C82.1238 32.744 82.2258 33.056 82.2978 33.2C82.4658 33.5 82.6938 33.65 82.9818 33.65C83.2578 33.65 83.5518 33.542 83.8638 33.326C84.1278 33.146 84.3078 32.972 84.4038 32.804C84.4518 32.78 84.4998 32.648 84.5478 32.408C84.5958 32.156 84.7218 31.976 84.9258 31.868C84.9978 31.832 85.0818 31.814 85.1778 31.814C85.4658 31.814 85.7418 31.958 86.0058 32.246C86.2818 32.522 86.3898 32.81 86.3298 33.11ZM83.5038 26.774C83.0238 26.774 82.6338 27.116 82.3338 27.8C81.9378 28.712 81.7758 29.612 81.8478 30.5C82.4118 30.32 82.9338 29.9 83.4138 29.24C83.8938 28.58 84.1338 27.992 84.1338 27.476C84.1338 27.008 83.9238 26.774 83.5038 26.774Z"
        fill="#910C94" />
    <path
        d="M95.9479 33.848C95.9239 34.112 95.7499 34.34 95.4259 34.532C95.1019 34.712 94.7419 34.802 94.3459 34.802C93.7579 34.802 93.3559 34.616 93.1399 34.244C93.2359 30.548 93.1279 28.676 92.8159 28.628C92.5159 28.58 91.7839 30.236 90.6199 33.596C90.6199 33.956 90.6199 34.316 90.6199 34.676C90.6079 35.108 90.4879 35.414 90.2599 35.594C90.0439 35.774 89.8099 35.864 89.5579 35.864C89.1259 35.864 88.6639 35.63 88.1719 35.162C88.0279 35.042 87.9499 34.13 87.9379 32.426C87.9499 33.47 87.9559 31.532 87.9559 26.612C87.9559 26.504 87.9439 26.36 87.9199 26.18C87.8959 25.988 87.8839 25.85 87.8839 25.766C87.8839 25.538 87.9439 25.34 88.0639 25.172C88.2079 24.956 88.4359 24.848 88.7479 24.848C89.0719 24.848 89.4079 24.95 89.7559 25.154C90.1159 25.346 90.3319 25.532 90.4039 25.712C90.4519 25.832 90.4759 25.952 90.4759 26.072C90.4759 26.192 90.4279 26.36 90.3319 26.576C90.2359 26.792 90.1879 26.972 90.1879 27.116V29.6C90.9439 27.992 91.5139 26.93 91.8979 26.414C92.5819 25.526 93.3559 25.112 94.2199 25.172C94.7359 25.208 95.1019 25.688 95.3179 26.612C95.4859 27.308 95.5759 28.34 95.5879 29.708C95.5879 30.788 95.5879 31.868 95.5879 32.948C95.6119 33.032 95.6959 33.182 95.8399 33.398C95.9239 33.518 95.9599 33.668 95.9479 33.848Z"
        fill="#910C94" />
    <path
        d="M103.361 26.828C103.265 26.828 103.115 26.792 102.911 26.72C102.707 26.636 102.551 26.594 102.443 26.594C102.359 26.594 102.275 26.612 102.191 26.648L101.525 26.99V33.146C101.525 33.374 101.645 33.668 101.885 34.028C102.137 34.388 102.239 34.676 102.191 34.892C102.131 35.156 101.951 35.366 101.651 35.522C101.363 35.678 101.051 35.756 100.715 35.756C100.079 35.756 99.6412 35.474 99.4012 34.91C99.3292 34.742 99.2872 34.208 99.2752 33.308C99.2632 32.708 99.2692 31.772 99.2932 30.5C99.3172 29.06 99.3292 28.148 99.3292 27.764C99.2572 27.788 99.1372 27.872 98.9692 28.016C98.8012 28.148 98.6332 28.214 98.4652 28.214C98.3332 28.214 98.1652 28.178 97.9612 28.106C97.1212 27.818 96.7012 27.524 96.7012 27.224C96.7012 27.152 96.7192 27.074 96.7552 26.99C96.8392 26.798 96.9952 26.69 97.2232 26.666C97.5712 26.618 97.7812 26.576 97.8532 26.54C98.1292 26.432 98.6332 26.174 99.3652 25.766V24.2C99.3652 24.08 99.3292 23.924 99.2572 23.732C99.1972 23.528 99.1672 23.378 99.1672 23.282C99.1672 23.174 99.1972 23.072 99.2572 22.976C99.5692 22.496 99.9892 22.256 100.517 22.256C101.129 22.256 101.561 22.496 101.813 22.976C101.909 23.168 101.957 23.324 101.957 23.444C101.957 23.588 101.885 23.738 101.741 23.894C101.597 24.05 101.525 24.194 101.525 24.326V25.208C101.741 25.112 101.981 24.95 102.245 24.722C102.449 24.554 102.623 24.47 102.767 24.47C102.827 24.47 102.893 24.482 102.965 24.506C103.721 24.71 104.099 25.166 104.099 25.874C104.099 26.102 104.027 26.318 103.883 26.522C103.751 26.726 103.577 26.828 103.361 26.828Z"
        fill="#910C94" />
    <path
        d="M112.615 34.244C112.435 34.832 111.991 35.126 111.283 35.126C111.043 35.126 110.851 35.084 110.707 35C110.515 34.868 110.383 34.604 110.311 34.208C110.167 33.524 110.023 32.99 109.879 32.606C109.843 33.266 109.483 33.938 108.799 34.622C108.115 35.294 107.425 35.63 106.729 35.63C105.853 35.63 105.247 35.048 104.911 33.884C104.791 33.452 104.731 33.044 104.731 32.66C104.731 31.544 105.301 30.59 106.441 29.798C107.377 29.246 108.319 28.7 109.267 28.16C109.315 27.956 109.339 27.758 109.339 27.566C109.339 27.194 109.237 26.978 109.033 26.918C108.829 26.846 108.655 26.81 108.511 26.81C108.259 26.81 108.049 26.894 107.881 27.062C107.725 27.218 107.575 27.368 107.431 27.512C107.287 27.608 107.101 27.83 106.873 28.178C106.693 28.454 106.495 28.604 106.279 28.628C105.967 28.664 105.685 28.556 105.433 28.304C105.181 28.052 105.055 27.758 105.055 27.422C105.055 27.23 105.103 27.056 105.199 26.9C105.475 26.444 105.889 26.048 106.441 25.712C107.281 25.208 108.331 24.956 109.591 24.956C110.395 24.956 110.947 25.34 111.247 26.108C111.439 26.624 111.583 27.59 111.679 29.006C111.787 30.722 111.919 31.976 112.075 32.768C112.099 32.924 112.201 33.122 112.381 33.362C112.561 33.602 112.651 33.812 112.651 33.992C112.651 34.076 112.639 34.16 112.615 34.244ZM109.483 29.816C109.123 30.008 108.763 30.206 108.403 30.41C108.055 30.614 107.731 30.884 107.431 31.22C106.999 31.712 106.783 32.132 106.783 32.48C106.783 32.768 106.891 33.068 107.107 33.38C107.227 33.548 107.359 33.632 107.503 33.632C107.815 33.632 108.151 33.284 108.511 32.588C108.883 31.892 109.207 30.968 109.483 29.816Z"
        fill="#910C94" />
    <path
        d="M133.71 34.964C133.434 35.36 133.032 35.558 132.504 35.558C132.024 35.558 131.526 35.402 131.01 35.09C130.542 34.814 130.278 34.544 130.218 34.28C130.194 34.184 130.182 34.094 130.182 34.01C130.182 33.818 130.26 33.602 130.416 33.362C130.584 33.122 130.662 32.912 130.65 32.732L130.11 26.684L127.014 33.668C126.978 33.764 126.96 33.878 126.96 34.01C126.96 34.106 126.972 34.256 126.996 34.46C127.032 34.664 127.05 34.82 127.05 34.928C127.05 35.204 126.942 35.414 126.726 35.558C126.414 35.774 126.048 35.882 125.628 35.882C125.208 35.882 124.824 35.768 124.476 35.54C124.14 35.324 123.93 35.036 123.846 34.676C123.822 34.568 123.81 34.472 123.81 34.388C123.81 34.304 123.822 34.202 123.846 34.082C123.87 33.962 123.882 33.872 123.882 33.812C123.882 33.74 123.87 33.668 123.846 33.596L121.254 26.684L121.506 33.2C121.518 33.368 121.56 33.608 121.632 33.92C121.704 34.22 121.74 34.442 121.74 34.586C121.74 35.03 121.41 35.378 120.75 35.63C120.666 35.654 120.564 35.666 120.444 35.666C120.072 35.666 119.688 35.54 119.292 35.288C118.836 35.012 118.542 34.652 118.41 34.208C118.386 34.136 118.374 34.07 118.374 34.01C118.374 33.89 118.446 33.758 118.59 33.614C118.734 33.458 118.806 33.32 118.806 33.2L118.59 22.94C118.59 22.772 118.53 22.562 118.41 22.31C118.29 22.046 118.23 21.848 118.23 21.716C118.23 21.512 118.338 21.296 118.554 21.068C118.77 20.828 119.148 20.708 119.688 20.708C120.48 20.708 121.11 20.9 121.578 21.284C121.842 21.5 121.974 21.728 121.974 21.968C121.974 22.004 121.968 22.058 121.956 22.13C121.956 22.202 121.956 22.256 121.956 22.292C121.956 22.4 121.974 22.496 122.01 22.58L125.574 31.22L129.57 22.04C129.618 21.932 129.642 21.806 129.642 21.662C129.642 21.614 129.636 21.542 129.624 21.446C129.624 21.35 129.624 21.278 129.624 21.23C129.624 20.954 129.75 20.72 130.002 20.528C130.206 20.372 130.476 20.294 130.812 20.294C131.328 20.294 131.826 20.45 132.306 20.762C132.798 21.074 133.038 21.428 133.026 21.824C133.014 22.016 132.924 22.178 132.756 22.31C132.588 22.43 132.51 22.544 132.522 22.652L133.278 33.272C133.29 33.392 133.386 33.602 133.566 33.902C133.746 34.19 133.836 34.424 133.836 34.604C133.836 34.724 133.794 34.844 133.71 34.964Z"
        fill="#910C94" />
    <path
        d="M142.955 34.244C142.775 34.832 142.331 35.126 141.623 35.126C141.383 35.126 141.191 35.084 141.047 35C140.855 34.868 140.723 34.604 140.651 34.208C140.507 33.524 140.363 32.99 140.219 32.606C140.183 33.266 139.823 33.938 139.139 34.622C138.455 35.294 137.765 35.63 137.069 35.63C136.193 35.63 135.587 35.048 135.251 33.884C135.131 33.452 135.071 33.044 135.071 32.66C135.071 31.544 135.641 30.59 136.781 29.798C137.717 29.246 138.659 28.7 139.607 28.16C139.655 27.956 139.679 27.758 139.679 27.566C139.679 27.194 139.577 26.978 139.373 26.918C139.169 26.846 138.995 26.81 138.851 26.81C138.599 26.81 138.389 26.894 138.221 27.062C138.065 27.218 137.915 27.368 137.771 27.512C137.627 27.608 137.441 27.83 137.213 28.178C137.033 28.454 136.835 28.604 136.619 28.628C136.307 28.664 136.025 28.556 135.773 28.304C135.521 28.052 135.395 27.758 135.395 27.422C135.395 27.23 135.443 27.056 135.539 26.9C135.815 26.444 136.229 26.048 136.781 25.712C137.621 25.208 138.671 24.956 139.931 24.956C140.735 24.956 141.287 25.34 141.587 26.108C141.779 26.624 141.923 27.59 142.019 29.006C142.127 30.722 142.259 31.976 142.415 32.768C142.439 32.924 142.541 33.122 142.721 33.362C142.901 33.602 142.991 33.812 142.991 33.992C142.991 34.076 142.979 34.16 142.955 34.244ZM139.823 29.816C139.463 30.008 139.103 30.206 138.743 30.41C138.395 30.614 138.071 30.884 137.771 31.22C137.339 31.712 137.123 32.132 137.123 32.48C137.123 32.768 137.231 33.068 137.447 33.38C137.567 33.548 137.699 33.632 137.843 33.632C138.155 33.632 138.491 33.284 138.851 32.588C139.223 31.892 139.547 30.968 139.823 29.816Z"
        fill="#910C94" />
    <path
        d="M152.549 33.848C152.525 34.112 152.351 34.34 152.027 34.532C151.703 34.712 151.343 34.802 150.947 34.802C150.359 34.802 149.957 34.616 149.741 34.244C149.837 30.548 149.729 28.676 149.417 28.628C149.117 28.58 148.385 30.236 147.221 33.596C147.221 33.956 147.221 34.316 147.221 34.676C147.209 35.108 147.089 35.414 146.861 35.594C146.645 35.774 146.411 35.864 146.159 35.864C145.727 35.864 145.265 35.63 144.773 35.162C144.629 35.042 144.551 34.13 144.539 32.426C144.551 33.47 144.557 31.532 144.557 26.612C144.557 26.504 144.545 26.36 144.521 26.18C144.497 25.988 144.485 25.85 144.485 25.766C144.485 25.538 144.545 25.34 144.665 25.172C144.809 24.956 145.037 24.848 145.349 24.848C145.673 24.848 146.009 24.95 146.357 25.154C146.717 25.346 146.933 25.532 147.005 25.712C147.053 25.832 147.077 25.952 147.077 26.072C147.077 26.192 147.029 26.36 146.933 26.576C146.837 26.792 146.789 26.972 146.789 27.116V29.6C147.545 27.992 148.115 26.93 148.499 26.414C149.183 25.526 149.957 25.112 150.821 25.172C151.337 25.208 151.703 25.688 151.919 26.612C152.087 27.308 152.177 28.34 152.189 29.708C152.189 30.788 152.189 31.868 152.189 32.948C152.213 33.032 152.297 33.182 152.441 33.398C152.525 33.518 152.561 33.668 152.549 33.848Z"
        fill="#910C94" />
    <path
        d="M159.963 26.828C159.867 26.828 159.717 26.792 159.513 26.72C159.309 26.636 159.153 26.594 159.045 26.594C158.961 26.594 158.877 26.612 158.793 26.648L158.127 26.99V33.146C158.127 33.374 158.247 33.668 158.487 34.028C158.739 34.388 158.841 34.676 158.793 34.892C158.733 35.156 158.553 35.366 158.253 35.522C157.965 35.678 157.653 35.756 157.317 35.756C156.681 35.756 156.243 35.474 156.003 34.91C155.931 34.742 155.889 34.208 155.877 33.308C155.865 32.708 155.871 31.772 155.895 30.5C155.919 29.06 155.931 28.148 155.931 27.764C155.859 27.788 155.739 27.872 155.571 28.016C155.403 28.148 155.235 28.214 155.067 28.214C154.935 28.214 154.767 28.178 154.563 28.106C153.723 27.818 153.303 27.524 153.303 27.224C153.303 27.152 153.321 27.074 153.357 26.99C153.441 26.798 153.597 26.69 153.825 26.666C154.173 26.618 154.383 26.576 154.455 26.54C154.731 26.432 155.235 26.174 155.967 25.766V24.2C155.967 24.08 155.931 23.924 155.859 23.732C155.799 23.528 155.769 23.378 155.769 23.282C155.769 23.174 155.799 23.072 155.859 22.976C156.171 22.496 156.591 22.256 157.119 22.256C157.731 22.256 158.163 22.496 158.415 22.976C158.511 23.168 158.559 23.324 158.559 23.444C158.559 23.588 158.487 23.738 158.343 23.894C158.199 24.05 158.127 24.194 158.127 24.326V25.208C158.343 25.112 158.583 24.95 158.847 24.722C159.051 24.554 159.225 24.47 159.369 24.47C159.429 24.47 159.495 24.482 159.567 24.506C160.323 24.71 160.701 25.166 160.701 25.874C160.701 26.102 160.629 26.318 160.485 26.522C160.353 26.726 160.179 26.828 159.963 26.828Z"
        fill="#910C94" />
    <path
        d="M164.637 21.5C164.673 21.536 164.691 21.596 164.691 21.68C164.691 21.788 164.655 21.974 164.583 22.238C164.499 22.562 164.445 22.784 164.421 22.904C164.397 23.024 164.409 23.288 164.457 23.696C164.457 23.948 164.379 24.116 164.223 24.2C164.079 24.272 163.893 24.308 163.665 24.308C163.341 24.308 163.011 24.242 162.675 24.11C162.267 23.942 162.063 23.72 162.063 23.444C162.063 23.36 162.099 23.246 162.171 23.102C162.243 22.946 162.285 22.82 162.297 22.724C162.321 22.628 162.321 22.388 162.297 22.004C162.273 21.704 162.333 21.5 162.477 21.392C162.669 21.248 163.011 21.176 163.503 21.176C164.043 21.176 164.421 21.284 164.637 21.5ZM164.871 25.892C164.871 26.06 164.775 26.324 164.583 26.684C164.403 27.032 164.313 27.32 164.313 27.548V32.84C164.313 33.08 164.379 33.422 164.511 33.866C164.643 34.298 164.709 34.598 164.709 34.766C164.709 35.006 164.613 35.186 164.421 35.306C164.121 35.498 163.797 35.594 163.449 35.594C162.993 35.594 162.669 35.438 162.477 35.126C162.225 34.742 162.099 33.596 162.099 31.688C162.099 31.232 162.105 30.524 162.117 29.564C162.141 28.592 162.153 27.884 162.153 27.44C162.153 27.272 162.135 27.056 162.099 26.792C162.063 26.516 162.045 26.318 162.045 26.198C162.045 25.802 162.189 25.46 162.477 25.172C162.597 25.052 162.819 24.992 163.143 24.992C163.467 24.992 163.791 25.046 164.115 25.154C164.439 25.25 164.643 25.364 164.727 25.496C164.823 25.628 164.871 25.76 164.871 25.892Z"
        fill="#910C94" />
    <path
        d="M172.096 32.588C172.096 33.428 171.796 34.148 171.196 34.748C170.596 35.336 169.888 35.63 169.072 35.63C168.556 35.63 168.022 35.384 167.47 34.892C167.038 34.496 166.648 34.01 166.3 33.434C166 32.93 165.868 32.612 165.904 32.48C166.036 32.18 166.45 32.03 167.146 32.03C167.434 32.03 167.662 32.072 167.83 32.156C168.118 32.312 168.28 32.51 168.316 32.75C168.352 33.026 168.412 33.2 168.496 33.272C168.748 33.656 168.976 33.848 169.18 33.848C169.336 33.848 169.48 33.746 169.612 33.542C169.756 33.326 169.828 33.074 169.828 32.786C169.828 32.606 169.798 32.426 169.738 32.246C169.678 32.066 169.354 31.79 168.766 31.418C168.058 30.974 167.554 30.584 167.254 30.248C166.738 29.672 166.48 29 166.48 28.232C166.48 27.332 166.744 26.546 167.272 25.874C167.8 25.19 168.472 24.848 169.288 24.848C170.128 24.848 170.77 25.166 171.214 25.802C171.574 26.318 171.724 26.84 171.664 27.368C171.796 27.512 171.862 27.752 171.862 28.088C171.862 28.448 171.73 28.754 171.466 29.006C171.202 29.258 170.932 29.384 170.656 29.384C170.248 29.384 169.894 29.114 169.594 28.574C169.51 28.43 169.468 28.238 169.468 27.998C169.468 27.89 169.474 27.74 169.486 27.548C169.51 27.344 169.522 27.2 169.522 27.116C169.522 26.804 169.408 26.648 169.18 26.648C168.832 26.648 168.658 26.99 168.658 27.674C168.658 28.37 168.886 28.928 169.342 29.348C169.522 29.516 169.912 29.756 170.512 30.068C171.028 30.332 171.394 30.602 171.61 30.878C171.934 31.298 172.096 31.868 172.096 32.588Z"
        fill="#910C94" />
    <circle cx="30.5" cy="21" r="11" fill="#C318C7" />
    <path
        d="M41.5 36C41.5 33.0826 40.3411 30.2847 38.2782 28.2218C36.2153 26.1589 33.4174 25 30.5 25C27.5826 25 24.7847 26.1589 22.7218 28.2218C20.6589 30.2847 19.5 33.0826 19.5 36L41.5 36Z"
        fill="#910C94" />
    <path
        d="M41.5 44C41.5 41.0826 40.3411 38.2847 38.2782 36.2218C36.2153 34.1589 33.4174 33 30.5 33C27.5826 33 24.7847 34.1589 22.7218 36.2218C20.6589 38.2847 19.5 41.0826 19.5 44L41.5 44Z"
        fill="#C318C7" />
</svg>