<svg width="213" height="34" viewBox="0 0 213 34" fill="none" xmlns="http://www.w3.org/2000/svg">
    <path
        d="M43.8555 15.8156C43.8409 15.5821 43.8336 15.2318 43.8336 14.7647V13.9327C43.8336 13.378 43.819 12.962 43.7898 12.6847C43.7607 12.4511 43.7461 11.8454 43.7461 10.8674C43.7461 10.5171 43.8482 10.2471 44.0526 10.0573C44.2715 9.85296 44.5635 9.75079 44.9284 9.75079C45.3955 9.75079 45.7093 9.85296 45.8698 10.0573C46.0304 10.2617 46.1107 10.5974 46.1107 11.0645V11.8965L46.0888 14.3049C46.0742 14.772 46.0669 15.4726 46.0669 16.4068L46.0888 18.2022C46.1034 18.4795 46.1107 18.8663 46.1107 19.3626C46.1107 19.7567 46.1253 20.3186 46.1545 21.0485C46.1837 21.7199 46.1983 22.2235 46.1983 22.5592C46.1983 22.8365 46.118 23.092 45.9574 23.3255C45.8115 23.5591 45.6071 23.6758 45.3444 23.6758C44.3226 23.6758 43.8117 23.3328 43.8117 22.6468C43.8117 22.2673 43.8263 21.844 43.8555 21.3769C43.8847 21.0412 43.8993 20.5303 43.8993 19.8443C43.8993 19.3626 43.8847 18.6692 43.8555 17.7643C43.1695 17.8226 41.9872 17.8518 40.3086 17.8518C39.2576 17.8518 38.4402 17.8518 37.8564 17.8518C37.2725 17.8372 36.8492 17.8008 36.5865 17.7424L36.5646 20.2603C36.5646 20.4208 36.6011 20.8514 36.6741 21.5521C36.747 22.0191 36.7835 22.4278 36.7835 22.7782C36.7835 22.9971 36.6522 23.2088 36.3894 23.4131C36.1413 23.6029 35.9077 23.6977 35.6888 23.6977C35.1633 23.6977 34.8057 23.5737 34.616 23.3255C34.4262 23.0628 34.3313 22.6687 34.3313 22.1432L34.3094 20.4135C34.2948 20.2092 34.2875 19.9245 34.2875 19.5596C34.2875 19.0196 34.2729 18.2824 34.2437 17.3483C34.2145 16.5017 34.2 15.8886 34.2 15.5091C34.2 14.9398 34.2145 14.1443 34.2437 13.1226C34.2729 12.1592 34.2875 11.444 34.2875 10.9769C34.2875 10.5098 34.4043 10.196 34.6378 10.0354C34.8714 9.87486 35.1341 9.79458 35.4261 9.79458C36.2435 9.79458 36.6522 10.0646 36.6522 10.6047C36.6522 11.5681 36.6303 12.4876 36.5865 13.3634C36.5573 14.4728 36.5427 15.2829 36.5427 15.7937C36.966 15.8959 37.4112 15.9616 37.8783 15.9908C38.3454 16.02 39.0022 16.0346 39.8488 16.0346C41.5712 16.0346 42.9068 15.9616 43.8555 15.8156Z"
        fill="#097314" />
    <path
        d="M50.0601 9.59753C50.571 9.64131 51.0162 9.77998 51.3957 10.0135C51.7752 10.2325 51.965 10.5682 51.965 11.0207C51.965 11.3564 51.8044 11.6264 51.4833 11.8308C51.1768 12.0205 50.8045 12.1154 50.3666 12.1154C49.9433 12.1154 49.6514 12.0059 49.4909 11.787C49.3303 11.5681 49.25 11.3418 49.25 11.1083C49.25 10.6704 49.2938 10.3055 49.3814 10.0135C49.4836 9.7216 49.7098 9.58293 50.0601 9.59753ZM51.8117 19.9318C51.8117 20.5011 51.8263 21.0412 51.8555 21.5521C51.8993 22.0483 51.9504 22.5519 52.0088 23.0628C51.9942 23.2088 51.8847 23.362 51.6803 23.5226C51.476 23.6685 51.2935 23.7415 51.133 23.7415C50.8556 23.7415 50.571 23.6904 50.2791 23.5883C50.0017 23.4715 49.8339 23.3328 49.7755 23.1723C49.6879 22.7052 49.6441 22.2892 49.6441 21.9243C49.6441 20.7274 49.6076 19.3845 49.5346 17.8956C49.4763 16.5819 49.4471 15.6624 49.4471 15.1369C49.4471 14.8742 49.5784 14.6479 49.8412 14.4582C50.1039 14.2684 50.3812 14.1735 50.6732 14.1735C51.0965 14.1735 51.3884 14.2684 51.549 14.4582C51.7241 14.6479 51.8117 14.9471 51.8117 15.3558V19.9318Z"
        fill="#097314" />
    <path
        d="M62.4495 23.6102C62.8436 23.8875 63.1063 24.194 63.2377 24.5297C63.3836 24.8655 63.4566 25.3325 63.4566 25.931C63.4566 26.2229 63.369 26.5149 63.1939 26.8068C63.0333 27.0987 62.8655 27.3104 62.6903 27.4417C61.3036 28.2008 59.917 28.5803 58.5303 28.5803C57.8443 28.5803 57.2531 28.4927 56.7568 28.3175C56.2606 28.1424 55.7935 27.9088 55.3556 27.6169C55.0636 27.3979 54.8228 27.0914 54.633 26.6973C54.4579 26.3178 54.3703 25.9383 54.3703 25.5588C54.3703 25.0333 54.5309 24.5735 54.852 24.1794C55.1877 23.7853 55.6329 23.5007 56.1876 23.3255C56.0854 23.1066 56.0343 22.8511 56.0343 22.5592C56.0343 22.2819 56.2387 21.8659 56.6474 21.3112C55.9467 21.0777 55.3921 20.6617 54.9834 20.0632C54.5893 19.4648 54.3922 18.7641 54.3922 17.9613C54.3922 17.465 54.509 17.0271 54.7425 16.6476C54.9761 16.2535 55.3264 15.801 55.7935 15.2902C56.1146 14.9398 56.5233 14.6844 57.0196 14.5238C57.5159 14.3633 58.1362 14.283 58.8806 14.283C59.4061 14.283 60.0556 14.3998 60.8293 14.6333C61.7488 13.9911 62.5589 13.6699 63.2596 13.6699C63.4347 13.6699 63.6318 13.7137 63.8507 13.8013C64.0843 13.8889 64.2594 13.9765 64.3762 14.0641C64.4638 14.2246 64.5076 14.4946 64.5076 14.8742C64.5076 15.0201 64.4419 15.1661 64.3105 15.3121C64.1937 15.4434 64.0405 15.5091 63.8507 15.5091L63.3253 15.4872C63.0625 15.458 62.8582 15.4434 62.7122 15.4434C62.5516 15.4434 62.3108 15.458 61.9897 15.4872C62.2962 15.8521 62.5297 16.2389 62.6903 16.6476C62.8655 17.0563 62.953 17.5891 62.953 18.2459C62.953 18.7422 62.7706 19.2604 62.4057 19.8005C62.0408 20.3405 61.6102 20.7638 61.1139 21.0704C60.3549 21.4791 59.4718 21.6907 58.4646 21.7053C58.3479 21.8221 58.2457 21.9316 58.1581 22.0337C58.0851 22.1213 58.0486 22.1943 58.0486 22.2527C58.0486 22.4132 58.1873 22.5373 58.4646 22.6249C58.742 22.7125 59.1653 22.7782 59.7345 22.8219C60.1724 22.8511 60.6541 22.946 61.1796 23.1066C61.7196 23.2525 62.1429 23.4204 62.4495 23.6102ZM58.596 19.9099C59.2674 19.9099 59.8075 19.7275 60.2162 19.3626C60.6249 18.9977 60.8293 18.4795 60.8293 17.8081C60.8293 17.2972 60.6468 16.8812 60.2819 16.5601C59.917 16.2389 59.4499 16.0784 58.8806 16.0784C58.5157 16.0784 58.1216 16.1441 57.6983 16.2754C57.2896 16.3922 56.9977 16.5819 56.8225 16.8447C56.7349 16.9615 56.6474 17.1877 56.5598 17.5234C56.4722 17.8445 56.4284 18.0927 56.4284 18.2678C56.4284 18.516 56.5306 18.7714 56.7349 19.0342C56.9539 19.2823 57.2312 19.4939 57.5669 19.6691C57.9173 19.8297 58.2603 19.9099 58.596 19.9099ZM59.9754 24.6611C59.1726 24.5881 58.6033 24.5151 58.2676 24.4422C57.9464 24.3838 57.6837 24.3108 57.4794 24.2232C56.7349 24.6173 56.3627 25.0479 56.3627 25.515C56.3627 25.9529 56.589 26.2813 57.0415 26.5003C57.494 26.7338 58.0121 26.8506 58.596 26.8506C58.8587 26.8506 59.2163 26.8214 59.6688 26.763C60.1213 26.7046 60.5008 26.6024 60.8074 26.4565C61.0117 26.3543 61.165 26.2521 61.2671 26.1499C61.3693 26.0624 61.4204 25.8945 61.4204 25.6464C61.4204 25.3398 61.2598 25.1063 60.9387 24.9457C60.6176 24.7852 60.2965 24.6903 59.9754 24.6611Z"
        fill="#097314" />
    <path
        d="M74.7038 23.7196C73.6091 23.7196 72.872 23.2963 72.4925 22.4497C72.3027 22.0264 72.1786 21.4791 72.1203 20.8076C72.0619 20.1216 72.0327 19.3188 72.0327 18.3992V17.7205C72.0327 16.6695 71.6824 16.1441 70.9817 16.1441C70.573 16.1441 70.1643 16.3557 69.7556 16.779C69.3469 17.1877 69.0039 17.7351 68.7266 18.4211C68.4638 19.0925 68.3325 19.7932 68.3325 20.523C68.3325 21.0047 68.3544 21.4426 68.3982 21.8367C68.4274 22.333 68.4419 22.7125 68.4419 22.9752C68.4419 23.4715 68.0989 23.7196 67.4129 23.7196C67.0772 23.7196 66.778 23.6466 66.5152 23.5007C66.2671 23.3547 66.143 23.165 66.143 22.9314C66.2014 22.187 66.2306 21.2674 66.2306 20.1727L66.2087 17.2826C66.2087 16.8155 66.1722 15.0858 66.0992 12.0935L66.0335 10.0792C66.0335 9.75809 66.1795 9.48075 66.4714 9.24721C66.7634 8.99907 67.0918 8.875 67.4567 8.875C67.7778 8.875 68.0114 8.94798 68.1573 9.09395C68.3033 9.23991 68.3763 9.46616 68.3763 9.77268C68.3763 10.1522 68.369 10.5974 68.3544 11.1083C68.3398 11.6045 68.3252 11.9841 68.3106 12.2468C68.2668 12.9912 68.2449 13.7356 68.2449 14.4801C68.2449 15.2099 68.2303 15.7864 68.2011 16.2097C68.639 15.5675 69.1353 15.0931 69.6899 14.7866C70.2592 14.4655 70.9234 14.3049 71.6824 14.3049C72.237 14.3049 72.7479 14.553 73.215 15.0493C73.6967 15.531 73.9886 16.0857 74.0908 16.7133C74.12 17.0344 74.1346 17.5088 74.1346 18.1365L74.1127 19.7348C74.1127 19.9829 74.1273 20.3697 74.1565 20.8952C74.1711 21.1434 74.2514 21.4061 74.3973 21.6834C74.5579 21.9608 74.7403 22.1651 74.9447 22.2965C75.1344 22.4132 75.2585 22.53 75.3169 22.6468C75.3753 22.7636 75.4045 22.8949 75.4045 23.0409C75.4045 23.1869 75.3388 23.3401 75.2074 23.5007C75.0761 23.6466 74.9082 23.7196 74.7038 23.7196Z"
        fill="#097314" />
    <path
        d="M92.9717 11.8965C93.1907 12.1592 93.344 12.3709 93.4315 12.5314C93.5191 12.692 93.5629 12.8452 93.5629 12.9912C93.5629 13.1664 93.4461 13.3707 93.2126 13.6043C92.9936 13.8378 92.7747 13.9546 92.5557 13.9546C92.2638 13.9546 92.0303 13.9108 91.8551 13.8232C91.68 13.7356 91.534 13.597 91.4172 13.4072C91.1399 12.9693 90.8188 12.5825 90.4539 12.2468C90.0889 11.8965 89.6 11.7213 88.9869 11.7213C88.3885 11.7213 87.717 11.86 86.9726 12.1373C86.2282 12.4146 85.6808 12.7577 85.3305 13.1664C84.5423 14.1297 84.1482 15.4069 84.1482 16.9979C84.1482 18.2678 84.5423 19.3553 85.3305 20.2603C86.1625 21.1944 87.2134 21.6615 88.4833 21.6615C89.0672 21.6615 89.7021 21.5594 90.3882 21.355C91.0888 21.1361 91.6435 20.7857 92.0522 20.3041H92.0303C92.293 20.0267 92.6214 19.8881 93.0155 19.8881C93.2491 19.8881 93.468 19.9902 93.6724 20.1946C93.8913 20.3989 94.0008 20.6033 94.0008 20.8076C94.0008 21.0266 93.9643 21.2236 93.8913 21.3988C93.8329 21.5594 93.7162 21.7418 93.541 21.9462C92.9426 22.603 92.1762 23.0628 91.2421 23.3255C90.3225 23.5737 89.2715 23.6977 88.0892 23.6977C87.1113 23.6977 86.1698 23.4642 85.2648 22.9971C84.3744 22.53 83.6373 21.9389 83.0534 21.2236C82.7615 20.8003 82.4769 20.1946 82.1995 19.4064C81.9368 18.6036 81.8054 17.954 81.8054 17.4577C81.8054 16.1878 81.9952 14.9836 82.3747 13.8451C82.7688 12.692 83.3527 11.7724 84.1263 11.0864C84.6371 10.6193 85.3743 10.269 86.3376 10.0354C87.301 9.80188 88.1841 9.68511 88.9869 9.68511C89.6292 9.68511 90.1765 9.77998 90.629 9.96974C91.0961 10.1449 91.4975 10.3857 91.8332 10.6923C92.1689 10.9842 92.5485 11.3856 92.9717 11.8965Z"
        fill="#097314" />
    <path
        d="M104.567 16.6257C104.684 16.8301 104.778 17.1293 104.851 17.5234C104.924 17.9029 104.961 18.2459 104.961 18.5525C104.961 18.9466 104.917 19.3845 104.829 19.8662C104.742 20.3478 104.662 20.7201 104.589 20.9828C103.581 22.8219 102.093 23.7415 100.122 23.7415C99.3923 23.7415 98.6478 23.5007 97.8888 23.019C97.1298 22.5373 96.6043 21.9826 96.3124 21.355C95.9183 20.1143 95.7212 19.3188 95.7212 18.9685C95.7212 18.3846 95.8453 17.7643 96.0935 17.1074C96.3562 16.4506 96.6846 15.8813 97.0787 15.3996C97.3415 15.0639 97.7939 14.7793 98.4362 14.5457C99.0784 14.2976 99.6623 14.1735 100.188 14.1735C101.21 14.1735 102.071 14.3706 102.771 14.7647C103.487 15.1442 104.085 15.7645 104.567 16.6257ZM102.662 20.1508C102.735 20.0048 102.771 19.5158 102.771 18.6838C102.771 18.2605 102.691 17.8445 102.531 17.4358C102.385 17.0271 102.166 16.6768 101.874 16.3849C101.844 16.3557 101.764 16.3119 101.633 16.2535C101.501 16.1805 101.319 16.1149 101.085 16.0565C100.867 15.9835 100.611 15.947 100.319 15.947C99.5017 15.947 98.9033 16.2754 98.5238 16.9323C98.1443 17.5891 97.9545 18.3335 97.9545 19.1655C97.9545 19.2969 97.9983 19.5669 98.0859 19.9756C98.1735 20.3843 98.2391 20.6471 98.2829 20.7638C98.3997 20.9682 98.6332 21.209 98.9836 21.4864C99.3485 21.7491 99.7426 21.8805 100.166 21.8805C100.823 21.8805 101.341 21.7272 101.72 21.4207C102.115 21.0996 102.428 20.6763 102.662 20.1508Z"
        fill="#097314" />
    <path
        d="M106.818 16.2754C106.701 16.2754 106.599 16.2316 106.511 16.1441C106.424 16.0419 106.38 15.9251 106.38 15.7937C106.38 15.3704 106.519 15.0493 106.796 14.8304C107.073 14.5968 107.416 14.4801 107.825 14.4801C108.394 14.4801 108.883 14.6333 109.292 14.9398C109.715 15.2318 109.927 15.6551 109.927 16.2097C109.927 16.3557 109.898 16.9104 109.839 17.8737C109.781 18.9831 109.752 19.7202 109.752 20.0851C109.752 20.596 109.847 21.012 110.036 21.3331C110.241 21.6396 110.554 21.7929 110.978 21.7929C111.795 21.7929 112.423 21.3404 112.861 20.4354C113.313 19.5158 113.612 18.3919 113.758 17.0636C113.817 16.4798 113.904 15.8667 114.021 15.2245C114.08 14.8742 114.16 14.6187 114.262 14.4582C114.364 14.2976 114.561 14.2173 114.853 14.2173C115.043 14.2173 115.262 14.2611 115.51 14.3487C115.773 14.4363 115.941 14.553 116.014 14.699C116.101 14.9179 116.145 15.1588 116.145 15.4215C116.145 15.7864 116.094 16.2608 115.992 16.8447C115.875 17.4285 115.795 18.0635 115.751 18.7495C115.722 19.3626 115.817 20.0048 116.035 20.6763C116.254 21.3477 116.568 21.7856 116.977 21.9899C117.444 22.2235 117.678 22.4351 117.678 22.6249C117.678 22.9314 117.568 23.1723 117.349 23.3474C117.13 23.5226 116.919 23.6102 116.714 23.6102C116.174 23.6102 115.685 23.4131 115.247 23.019C114.824 22.6249 114.517 22.1359 114.328 21.5521C114.021 22.0191 113.722 22.4059 113.43 22.7125C113.153 23.0044 112.795 23.2525 112.357 23.4569C111.919 23.6466 111.379 23.7415 110.737 23.7415C109.978 23.7415 109.285 23.4715 108.657 22.9314C108.044 22.3913 107.737 21.4645 107.737 20.1508C107.737 19.7859 107.745 19.3991 107.759 18.9904C107.788 18.5817 107.803 18.2897 107.803 18.1146C107.847 17.5891 107.869 17.1074 107.869 16.6695C107.869 16.5382 107.818 16.4287 107.715 16.3411C107.628 16.2535 107.526 16.2097 107.409 16.2097C107.321 16.2097 107.219 16.2243 107.102 16.2535C107 16.2681 106.905 16.2754 106.818 16.2754Z"
        fill="#097314" />
    <path
        d="M129.209 21.9681C129.282 21.9972 129.398 22.0337 129.559 22.0775C129.72 22.1213 129.836 22.1651 129.909 22.2089C129.982 22.2527 130.019 22.3184 130.019 22.4059C130.033 22.7563 129.902 23.0482 129.625 23.2817C129.362 23.5007 129.048 23.6102 128.683 23.6102C128.114 23.6102 127.669 23.4569 127.348 23.1504C127.027 22.8438 126.793 22.3768 126.647 21.7491C126.589 21.501 126.559 21.1579 126.559 20.7201C126.559 20.4719 126.574 20.0705 126.603 19.5158C126.632 18.932 126.647 18.4649 126.647 18.1146C126.647 17.4869 126.581 17.0125 126.45 16.6914C126.319 16.3557 126.005 16.1878 125.509 16.1878C124.998 16.1878 124.538 16.3922 124.129 16.8009C123.735 17.2096 123.399 17.8226 123.122 18.6401C122.742 19.7786 122.531 21.2893 122.487 23.1723C122.487 23.2744 122.378 23.3985 122.159 23.5445C121.954 23.6758 121.706 23.7415 121.414 23.7415C120.874 23.7415 120.538 23.4569 120.407 22.8876L120.385 22.5154C120.385 22.3841 120.4 22.2308 120.429 22.0556C120.604 21.0339 120.692 20.1435 120.692 19.3845C120.692 19.0488 120.684 18.786 120.67 18.5963L120.648 17.5672C120.648 17.2169 120.56 16.8812 120.385 16.5601C120.21 16.2243 120.006 16.0565 119.772 16.0565C119.699 16.0565 119.597 16.0857 119.466 16.1441C119.334 16.1878 119.225 16.2097 119.137 16.2097C118.991 16.2097 118.831 16.1368 118.655 15.9908C118.495 15.8448 118.415 15.6916 118.415 15.531C118.415 15.2245 118.517 14.9763 118.721 14.7866C118.94 14.6114 119.152 14.4728 119.356 14.3706C119.575 14.2684 119.823 14.2173 120.101 14.2173C120.334 14.2173 120.524 14.2392 120.67 14.283C120.816 14.3268 121.013 14.4217 121.261 14.5676C121.407 14.6406 121.575 14.845 121.765 15.1807C121.954 15.5164 122.1 15.9908 122.202 16.6038C122.494 16.0638 122.983 15.4945 123.669 14.8961C124.18 14.429 124.917 14.1954 125.881 14.1954C126.757 14.1954 127.45 14.5165 127.961 15.1588C128.472 15.7864 128.727 16.6549 128.727 17.7643C128.727 17.9832 128.712 18.3408 128.683 18.8371C128.639 19.2312 128.618 19.6472 128.618 20.0851C128.618 21.1069 128.815 21.7345 129.209 21.9681Z"
        fill="#097314" />
    <path
        d="M131.647 16.0784C131.443 16.0492 131.275 15.9616 131.144 15.8156C131.027 15.6697 130.969 15.4945 130.969 15.2902C130.969 15.188 130.991 15.0785 131.034 14.9617C131.093 14.845 131.173 14.7428 131.275 14.6552C131.465 14.4655 131.976 14.3706 132.808 14.3706C132.925 13.8013 132.983 13.2248 132.983 12.6409C132.983 12.4219 132.976 12.2322 132.961 12.0716C132.947 11.9111 132.939 11.787 132.939 11.6994C132.939 11.3783 133.056 11.1375 133.29 10.9769C133.538 10.8163 133.815 10.7361 134.122 10.7361C134.501 10.7361 134.756 10.8309 134.888 11.0207C135.034 11.2104 135.107 11.5608 135.107 12.0716C135.107 12.8306 135.041 13.5751 134.91 14.3049C135.143 14.3049 135.464 14.2903 135.873 14.2611C136.428 14.2319 136.829 14.2173 137.077 14.2173C137.325 14.2173 137.537 14.283 137.712 14.4144C137.902 14.5311 137.997 14.699 137.997 14.9179C137.997 15.4872 137.741 15.8229 137.231 15.9251C136.691 16.0565 135.851 16.1368 134.713 16.1659C134.669 16.7352 134.647 17.3556 134.647 18.027C134.647 19.0779 134.713 19.9391 134.844 20.6106C134.932 21.0777 135.078 21.4207 135.282 21.6396C135.501 21.844 135.822 21.9462 136.245 21.9462C136.493 21.9462 136.749 21.8805 137.012 21.7491C137.187 21.6469 137.347 21.5958 137.493 21.5958C137.698 21.5958 137.844 21.6615 137.931 21.7929C138.033 21.9243 138.084 22.0994 138.084 22.3184C138.084 22.7271 137.866 23.0701 137.428 23.3474C136.99 23.6102 136.428 23.7415 135.742 23.7415C135.318 23.7415 134.888 23.6393 134.45 23.435C134.027 23.2306 133.669 22.9752 133.377 22.6687C133.333 22.6249 133.253 22.457 133.136 22.1651C133.02 21.8732 132.917 21.5594 132.83 21.2236C132.684 20.5376 132.611 19.5742 132.611 18.3335C132.611 17.7935 132.64 17.0709 132.698 16.1659L131.647 16.0784Z"
        fill="#097314" />
    <path
        d="M139.967 15.9689C139.587 15.7062 139.398 15.4288 139.398 15.1369C139.398 14.9325 139.485 14.7428 139.66 14.5676C139.836 14.3925 140.098 14.3049 140.449 14.3049C140.857 14.3049 141.222 14.4144 141.543 14.6333C141.879 14.8377 142.113 15.1369 142.244 15.531C142.58 15.1369 142.959 14.8231 143.382 14.5895C143.82 14.356 144.266 14.2392 144.718 14.2392C145.258 14.2392 145.747 14.3852 146.185 14.6771C146.623 14.969 146.842 15.3631 146.842 15.8594C146.842 16.1368 146.718 16.4214 146.47 16.7133C146.236 17.0052 145.995 17.1512 145.747 17.1512C145.616 17.1512 145.499 17.122 145.397 17.0636C145.309 16.9906 145.2 16.8885 145.068 16.7571C144.922 16.6111 144.798 16.509 144.696 16.4506C144.594 16.3776 144.477 16.3411 144.346 16.3411C144.112 16.3411 143.893 16.3776 143.689 16.4506C143.485 16.5236 143.346 16.6111 143.273 16.7133C143.039 17.0782 142.864 17.4066 142.748 17.6986C142.645 17.9905 142.594 18.3043 142.594 18.6401C142.594 18.8882 142.587 19.0852 142.572 19.2312L142.55 20.4792C142.55 20.669 142.558 20.8806 142.572 21.1142C142.587 21.3477 142.602 21.5229 142.616 21.6396C142.66 22.0337 142.682 22.4132 142.682 22.7782C142.682 23.0263 142.587 23.2452 142.397 23.435C142.207 23.6248 141.974 23.7196 141.697 23.7196C141.259 23.7196 140.938 23.6393 140.733 23.4788C140.529 23.3036 140.427 22.9898 140.427 22.5373L140.405 21.1361C140.39 20.8587 140.383 20.4646 140.383 19.9537L140.405 18.5087C140.434 17.8081 140.449 17.2388 140.449 16.8009C140.449 16.6403 140.412 16.4944 140.339 16.363C140.281 16.2316 140.157 16.1003 139.967 15.9689Z"
        fill="#097314" />
    <path
        d="M150.607 28.1205C150.067 28.1205 149.607 28.0256 149.227 27.8358C148.848 27.6607 148.563 27.4417 148.373 27.179C148.198 26.9309 148.111 26.7119 148.111 26.5222C148.111 26.2594 148.206 26.0259 148.395 25.8215C148.585 25.6318 148.797 25.5369 149.03 25.5369C149.162 25.5369 149.286 25.5807 149.403 25.6683C149.534 25.7558 149.614 25.8069 149.643 25.8215C149.716 25.8799 149.811 25.9675 149.928 26.0843C150.045 26.2156 150.162 26.2813 150.278 26.2813C150.614 26.2813 150.884 26.0697 151.088 25.6464C151.293 25.2231 151.49 24.537 151.68 23.5883C150.716 21.9972 149.804 20.377 148.943 18.7276C148.082 17.0782 147.651 15.9616 147.651 15.3777C147.651 15.0128 147.782 14.7428 148.045 14.5676C148.308 14.3925 148.607 14.3049 148.943 14.3049C149.191 14.3049 149.388 14.356 149.534 14.4582C149.68 14.5457 149.797 14.7136 149.884 14.9617C150.293 16.2024 150.709 17.3118 151.132 18.2897C151.556 19.2531 152.044 20.2238 152.599 21.2017C152.862 20.6179 153.176 19.6618 153.541 18.3335C153.76 17.5599 153.949 16.9323 154.11 16.4506C154.27 15.9543 154.453 15.5018 154.657 15.0931C154.789 14.8304 154.949 14.6187 155.139 14.4582C155.343 14.2976 155.562 14.2173 155.796 14.2173C156.059 14.2173 156.329 14.3122 156.606 14.5019C156.898 14.6771 157.044 14.8888 157.044 15.1369C157.044 15.2099 156.993 15.385 156.891 15.6624C156.321 16.9323 155.818 18.1584 155.38 19.3407C154.942 20.5084 154.533 21.7929 154.154 23.1942C153.92 23.9386 153.672 24.6611 153.409 25.3617C153.147 26.077 152.964 26.5222 152.862 26.6973C152.555 27.106 152.227 27.4417 151.877 27.7045C151.526 27.9818 151.103 28.1205 150.607 28.1205Z"
        fill="#097314" />
    <path
        d="M174.5 11.5024C174.719 11.7651 174.872 11.9768 174.96 12.1373C175.047 12.2979 175.091 12.4511 175.091 12.5971C175.091 12.7723 174.974 12.9766 174.741 13.2102C174.522 13.4437 174.303 13.5605 174.084 13.5605C173.792 13.5605 173.558 13.5167 173.383 13.4291C173.208 13.3415 173.062 13.2029 172.945 13.0131C172.712 12.6628 172.427 12.3636 172.091 12.1154C171.756 11.8527 171.23 11.7213 170.515 11.7213C169.902 11.7213 169.201 11.86 168.413 12.1373C167.639 12.4146 167.085 12.7577 166.749 13.1664C166.457 13.5313 166.202 14.0859 165.983 14.8304C165.778 15.5748 165.676 16.2973 165.676 16.9979C165.676 17.8445 165.859 18.6255 166.223 19.3407C166.603 20.0413 167.143 20.6033 167.844 21.0266C168.559 21.4499 169.413 21.6615 170.405 21.6615C170.945 21.6615 171.5 21.5594 172.069 21.355C172.653 21.1361 173.157 20.7857 173.58 20.3041H173.558C173.821 20.0267 174.149 19.8881 174.544 19.8881C174.777 19.8881 174.996 19.9902 175.2 20.1946C175.419 20.3989 175.529 20.6033 175.529 20.8076C175.529 21.0266 175.492 21.2236 175.419 21.3988C175.361 21.5594 175.244 21.7418 175.069 21.9462C174.471 22.6176 173.763 23.0774 172.945 23.3255C172.128 23.5737 171.15 23.6977 170.011 23.6977C169.004 23.6977 167.982 23.4569 166.946 22.9752C165.924 22.4935 165.136 21.9097 164.581 21.2236C164.289 20.8003 164.005 20.1946 163.727 19.4064C163.465 18.6036 163.333 17.954 163.333 17.4577C163.333 16.1878 163.523 14.9836 163.903 13.8451C164.297 12.692 164.881 11.7724 165.654 11.0864C166.165 10.6193 166.902 10.269 167.866 10.0354C168.829 9.80188 169.712 9.68511 170.515 9.68511C171.493 9.68511 172.259 9.82377 172.814 10.1011C173.383 10.3638 173.945 10.8309 174.5 11.5024Z"
        fill="#097314" />
    <path
        d="M179.92 20.2603C179.92 20.8149 180.001 21.2455 180.161 21.5521C180.336 21.844 180.555 21.9899 180.818 21.9899C180.964 21.9899 181.103 21.9826 181.234 21.9681C181.365 21.9389 181.497 21.9243 181.628 21.9243C181.774 21.9243 181.898 21.9972 182 22.1432C182.117 22.2892 182.176 22.4497 182.176 22.6249C182.176 22.9752 182.008 23.2525 181.672 23.4569C181.351 23.6466 180.913 23.7415 180.358 23.7415C179.964 23.7415 179.563 23.6248 179.154 23.3912C178.76 23.1431 178.432 22.7636 178.169 22.2527C177.906 21.7272 177.775 21.0777 177.775 20.3041C177.775 18.6401 177.804 17.2315 177.862 16.0784C177.935 14.7063 177.972 12.9766 177.972 10.8893C177.972 10.2325 178.008 9.77268 178.081 9.50995C178.169 9.3056 178.307 9.15233 178.497 9.05016C178.702 8.93339 178.913 8.875 179.132 8.875C179.351 8.875 179.541 8.91149 179.701 8.98447C179.877 9.05746 179.993 9.17423 180.052 9.33479C180.11 9.50995 180.147 9.6851 180.161 9.86026C180.19 10.0208 180.205 10.2544 180.205 10.5609C180.205 11.1593 180.183 11.7359 180.139 12.2906C180.11 12.962 180.096 13.451 180.096 13.7575C179.979 16.3265 179.92 18.4941 179.92 20.2603Z"
        fill="#097314" />
    <path
        d="M183.253 16.2754C183.136 16.2754 183.027 16.2316 182.924 16.1441C182.837 16.0419 182.793 15.9251 182.793 15.7937C182.793 15.458 182.939 15.1442 183.231 14.8523C183.318 14.8085 183.494 14.7355 183.756 14.6333C184.019 14.5311 184.253 14.4801 184.457 14.4801C185.012 14.4801 185.464 14.6333 185.814 14.9398C186.165 15.2318 186.34 15.6551 186.34 16.2097C186.34 16.3703 186.311 16.7133 186.252 17.2388C186.194 17.8518 186.165 18.3262 186.165 18.6619C186.165 19.6837 186.303 20.5084 186.581 21.1361C186.683 21.3404 186.844 21.501 187.062 21.6177C187.281 21.7345 187.479 21.7929 187.654 21.7929C188.077 21.7929 188.42 21.7199 188.683 21.5739C188.945 21.428 189.23 21.1944 189.537 20.8733C189.843 20.5522 190.04 20.1873 190.128 19.7786C190.23 19.3699 190.303 18.8079 190.347 18.0927C190.376 17.6256 190.405 17.2826 190.434 17.0636C190.507 16.363 190.544 15.7645 190.544 15.2683C190.544 14.9471 190.631 14.6844 190.806 14.4801C190.982 14.2611 191.222 14.1516 191.529 14.1516C191.704 14.1516 191.901 14.21 192.12 14.3268C192.354 14.429 192.507 14.553 192.58 14.699C192.668 14.845 192.711 15.0858 192.711 15.4215C192.711 15.5967 192.689 15.7645 192.646 15.9251C192.543 16.29 192.492 16.7279 192.492 17.2388L192.514 18.3773C192.514 19.4137 192.587 20.18 192.733 20.6763C192.806 20.9098 192.908 21.1506 193.04 21.3988C193.171 21.6323 193.295 21.8294 193.412 21.9899C193.704 22.3111 193.894 22.5373 193.981 22.6687C194.069 22.7855 194.113 22.9022 194.113 23.019C194.113 23.1942 194.025 23.362 193.85 23.5226C193.689 23.6685 193.514 23.7415 193.324 23.7415C192.784 23.7415 192.317 23.5591 191.923 23.1942C191.529 22.8292 191.237 22.3549 191.047 21.771C190.551 22.3403 190.091 22.8001 189.668 23.1504C189.376 23.3547 189.018 23.508 188.595 23.6102C188.172 23.6977 187.749 23.7415 187.325 23.7415C186.756 23.7415 186.179 23.508 185.596 23.0409C185.012 22.5738 184.618 22.0337 184.413 21.4207C184.399 21.3915 184.355 21.2747 184.282 21.0704C184.223 20.866 184.194 20.5595 184.194 20.1508C184.194 19.6107 184.223 18.932 184.282 18.1146C184.326 17.5891 184.348 17.1074 184.348 16.6695C184.348 16.5382 184.296 16.4287 184.194 16.3411C184.107 16.2535 184.005 16.2097 183.888 16.2097C183.8 16.2097 183.698 16.2243 183.581 16.2535C183.479 16.2681 183.37 16.2754 183.253 16.2754Z"
        fill="#097314" />
    <path
        d="M196.296 19.7129C196.296 18.8955 196.304 18.2751 196.318 17.8518L196.34 15.7718C196.34 14.9252 196.318 13.9984 196.274 12.9912C196.26 12.6847 196.209 12.2614 196.121 11.7213C196.004 10.9039 195.946 10.2909 195.946 9.88216C195.946 9.21072 196.282 8.875 196.953 8.875C197.376 8.875 197.676 8.99177 197.851 9.22532C198.041 9.44426 198.172 9.79458 198.245 10.2763C198.391 11.2834 198.464 12.4657 198.464 13.8232C198.464 14.2319 198.449 14.845 198.42 15.6624C198.697 15.2245 199.055 14.8815 199.493 14.6333C199.945 14.3852 200.391 14.2611 200.828 14.2611C202.098 14.2611 203.193 14.7866 204.113 15.8375C204.361 16.2024 204.58 16.6403 204.77 17.1512C204.974 17.6475 205.076 18.0781 205.076 18.443C205.076 19.0852 205.003 19.6764 204.857 20.2165C204.726 20.7565 204.485 21.282 204.135 21.7929C203.784 22.3038 203.339 22.7198 202.799 23.0409C202.274 23.362 201.66 23.5226 200.96 23.5226C200.347 23.5226 199.792 23.3985 199.296 23.1504C198.814 22.9022 198.427 22.5738 198.135 22.1651C198.062 22.53 197.902 22.8949 197.654 23.2598C197.406 23.6102 197.121 23.7853 196.8 23.7853C196.537 23.7853 196.318 23.7196 196.143 23.5883C195.968 23.4423 195.88 23.2306 195.88 22.9533C195.88 22.749 195.924 22.4935 196.012 22.187C196.099 21.7637 196.165 21.3769 196.209 21.0266C196.267 20.6617 196.296 20.2238 196.296 19.7129ZM200.412 21.7053C201.128 21.7053 201.726 21.4572 202.208 20.9609C202.69 20.45 202.93 19.764 202.93 18.9028C202.93 18.1146 202.719 17.4358 202.295 16.8666C202.149 16.6768 201.938 16.5236 201.66 16.4068C201.398 16.29 201.135 16.2316 200.872 16.2316C200.259 16.2316 199.741 16.4141 199.318 16.779C198.894 17.1293 198.654 17.6183 198.595 18.2459C198.537 19.0925 198.508 19.8224 198.508 20.4354C198.683 20.7711 198.946 21.0704 199.296 21.3331C199.661 21.5812 200.033 21.7053 200.412 21.7053Z"
        fill="#097314" />
    <path d="M12.6 6.875C12.6 6.875 6.99999 12.9698 6.99999 16.875C6.99999 20.7802 12.6 26.875 12.6 26.875"
        stroke="#097314" stroke-width="2.4" stroke-linecap="round" />
    <path d="M19.4 6.875C19.4 6.875 13.8 12.9698 13.8 16.875C13.8 20.7802 19.4 26.875 19.4 26.875" stroke="#097314"
        stroke-width="2.4" stroke-linecap="round" />
    <path d="M26.2 6.875C26.2 6.875 20.6 12.9698 20.6 16.875C20.6 20.7802 26.2 26.875 26.2 26.875" stroke="#097314"
        stroke-width="2.4" stroke-linecap="round" />
    <path d="M7 16.475H13.8" stroke="#097314" stroke-width="2.4" />
</svg>