<svg width="204" height="36" viewBox="0 0 204 36" fill="none" xmlns="http://www.w3.org/2000/svg">
    <path
        d="M34.76 25.97C37.08 25.97 38.24 25.11 38.24 23.39C38.24 22.69 38.06 22.14 37.7 21.74C37.36 21.34 36.72 20.99 35.78 20.69L33.32 19.88C30.38 18.92 28.91 16.99 28.91 14.09C28.91 12.41 29.43 11.03 30.47 9.95C31.53 8.85 33.18 8.3 35.42 8.3C36.36 8.3 37.29 8.41 38.21 8.63C39.13 8.83 40.11 9.16 41.15 9.62L40.04 12.71C39.08 12.33 38.26 12.06 37.58 11.9C36.92 11.72 36.24 11.63 35.54 11.63C34.62 11.63 33.89 11.8 33.35 12.14C32.83 12.46 32.57 13.05 32.57 13.91C32.57 14.55 32.75 15.08 33.11 15.5C33.49 15.9 34.11 16.24 34.97 16.52L37.43 17.33C38.91 17.83 40.02 18.56 40.76 19.52C41.52 20.46 41.9 21.71 41.9 23.27C41.9 25.07 41.33 26.53 40.19 27.65C39.05 28.75 37.26 29.3 34.82 29.3C33.86 29.3 32.86 29.19 31.82 28.97C30.8 28.73 29.68 28.33 28.46 27.77L29.57 24.68C30.69 25.16 31.64 25.5 32.42 25.7C33.22 25.88 34 25.97 34.76 25.97ZM54.5473 28.49C54.0273 28.73 53.4273 28.92 52.7473 29.06C52.0673 29.22 51.3773 29.3 50.6773 29.3C49.5173 29.3 48.5873 29.06 47.8873 28.58C47.1873 28.1 46.6773 27.43 46.3573 26.57C46.0573 25.71 45.9073 24.73 45.9073 23.63V16.79H43.4473V13.79H45.9073V9.83H49.3573V13.79H54.0973V16.79H49.3573V23.63C49.3573 24.55 49.5273 25.19 49.8673 25.55C50.2273 25.89 50.7373 26.06 51.3973 26.06C51.7173 26.06 52.0573 26.03 52.4173 25.97C52.7973 25.89 53.2173 25.76 53.6773 25.58L54.5473 28.49ZM66.3812 29V26.99C65.4612 27.79 64.6012 28.38 63.8012 28.76C63.0012 29.12 62.1912 29.3 61.3712 29.3C60.0112 29.3 58.9612 28.84 58.2212 27.92C57.4812 26.98 57.1112 25.67 57.1112 23.99V13.79H60.5612V23.57C60.5612 25.25 61.1812 26.09 62.4212 26.09C62.9212 26.09 63.4612 25.97 64.0412 25.73C64.6412 25.49 65.3612 25.03 66.2012 24.35V13.79H69.6512V29H66.3812ZM83.3113 29V26.93C82.3913 27.85 81.5913 28.48 80.9113 28.82C80.2513 29.14 79.5613 29.3 78.8413 29.3C77.2013 29.3 75.9213 28.68 75.0013 27.44C74.1013 26.2 73.6513 24.46 73.6513 22.22V20.6C73.6513 18.42 74.2013 16.69 75.3013 15.41C76.4013 14.13 77.9913 13.49 80.0713 13.49C80.5913 13.49 81.1013 13.54 81.6013 13.64C82.1213 13.74 82.6313 13.88 83.1313 14.06V6.8H86.5813V29H83.3113ZM77.1913 22.22C77.1913 23.56 77.4113 24.54 77.8513 25.16C78.3113 25.78 78.9513 26.09 79.7713 26.09C80.2313 26.09 80.7213 25.96 81.2413 25.7C81.7613 25.42 82.3913 24.9 83.1313 24.14V17.18C82.1513 16.78 81.2513 16.58 80.4313 16.58C79.2713 16.58 78.4413 16.94 77.9413 17.66C77.4413 18.38 77.1913 19.36 77.1913 20.6V22.22ZM94.8748 10.91H91.2448V7.34H94.8748V10.91ZM94.7848 29H91.3348V13.79H94.7848V29ZM111.988 20.48V22.28C111.988 24.4 111.408 26.1 110.248 27.38C109.088 28.66 107.448 29.3 105.328 29.3C103.208 29.3 101.568 28.66 100.408 27.38C99.248 26.1 98.668 24.4 98.668 22.28V20.48C98.668 18.36 99.238 16.67 100.378 15.41C101.538 14.13 103.188 13.49 105.328 13.49C107.468 13.49 109.108 14.13 110.248 15.41C111.408 16.67 111.988 18.36 111.988 20.48ZM108.448 20.48C108.448 19.26 108.178 18.31 107.638 17.63C107.098 16.93 106.328 16.58 105.328 16.58C104.328 16.58 103.558 16.93 103.018 17.63C102.478 18.31 102.208 19.26 102.208 20.48V22.28C102.208 23.5 102.478 24.46 103.018 25.16C103.558 25.86 104.328 26.21 105.328 26.21C106.328 26.21 107.098 25.86 107.638 25.16C108.178 24.46 108.448 23.5 108.448 22.28V20.48ZM120.116 26.3C120.856 26.3 121.466 26.18 121.946 25.94C122.426 25.68 122.666 25.3 122.666 24.8C122.666 24.36 122.506 24.02 122.186 23.78C121.886 23.52 121.336 23.29 120.536 23.09L118.826 22.64C117.506 22.3 116.526 21.73 115.886 20.93C115.266 20.13 114.956 19.18 114.956 18.08C114.956 16.78 115.406 15.69 116.306 14.81C117.206 13.93 118.596 13.49 120.476 13.49C121.236 13.49 122.036 13.58 122.876 13.76C123.716 13.94 124.596 14.23 125.516 14.63L124.526 17.57C123.686 17.17 122.926 16.89 122.246 16.73C121.566 16.57 120.966 16.49 120.446 16.49C119.026 16.49 118.316 16.97 118.316 17.93C118.316 18.31 118.436 18.61 118.676 18.83C118.936 19.05 119.406 19.25 120.086 19.43L121.796 19.88C123.256 20.26 124.316 20.84 124.976 21.62C125.656 22.4 125.996 23.38 125.996 24.56C125.996 25.96 125.516 27.1 124.556 27.98C123.616 28.86 122.126 29.3 120.086 29.3C118.346 29.3 116.516 28.9 114.596 28.1L115.526 25.25C116.466 25.63 117.316 25.9 118.076 26.06C118.836 26.22 119.516 26.3 120.116 26.3ZM148.468 13.79L144.568 29H140.818L138.298 17.57L135.628 29H131.878L127.978 13.79H131.518L132.988 19.82L134.008 25.31L136.588 13.79H140.068L142.738 25.43L143.698 19.85L145.138 13.79H148.468ZM163.177 29.15C162.157 29.15 161.337 28.94 160.717 28.52C160.117 28.1 159.677 27.58 159.397 26.96C158.537 27.76 157.707 28.35 156.907 28.73C156.107 29.11 155.247 29.3 154.327 29.3C152.987 29.3 151.997 28.87 151.357 28.01C150.737 27.15 150.427 26.06 150.427 24.74C150.427 23.86 150.587 23.09 150.907 22.43C151.247 21.75 151.797 21.22 152.557 20.84C153.317 20.46 154.357 20.27 155.677 20.27C156.197 20.27 156.737 20.31 157.297 20.39C157.857 20.45 158.417 20.53 158.977 20.63V18.86C158.977 18.02 158.747 17.45 158.287 17.15C157.827 16.83 157.207 16.67 156.427 16.67C155.827 16.67 155.167 16.75 154.447 16.91C153.747 17.07 152.987 17.32 152.167 17.66L151.177 14.72C153.197 13.9 155.027 13.49 156.667 13.49C158.147 13.49 159.287 13.74 160.087 14.24C160.907 14.74 161.477 15.4 161.797 16.22C162.117 17.04 162.277 17.92 162.277 18.86V24.71C162.277 25.01 162.357 25.3 162.517 25.58C162.697 25.84 163.037 25.97 163.537 25.97H163.867V29.15H163.177ZM153.757 24.68C153.757 25.22 153.877 25.65 154.117 25.97C154.357 26.27 154.707 26.42 155.167 26.42C155.627 26.42 156.147 26.3 156.727 26.06C157.307 25.82 158.057 25.26 158.977 24.38V23.09C157.937 22.91 156.917 22.82 155.917 22.82C155.137 22.82 154.577 22.98 154.237 23.3C153.917 23.62 153.757 24.08 153.757 24.68ZM175.442 16.94C174.502 16.94 173.602 17.09 172.742 17.39C171.902 17.67 171.092 18.13 170.312 18.77V29H166.862V13.79H170.132V16.13C171.152 15.17 172.062 14.49 172.862 14.09C173.662 13.69 174.522 13.49 175.442 13.49V16.94ZM181.914 18.47V29H178.464V13.79H181.734V15.8C182.674 14.98 183.544 14.39 184.344 14.03C185.144 13.67 185.964 13.49 186.804 13.49C188.664 13.49 189.934 14.31 190.614 15.95C191.614 15.07 192.544 14.44 193.404 14.06C194.264 13.68 195.134 13.49 196.014 13.49C197.414 13.49 198.484 13.96 199.224 14.9C199.964 15.82 200.334 17.12 200.334 18.8V29H196.884V19.22C196.884 17.54 196.244 16.7 194.964 16.7C194.464 16.7 193.914 16.82 193.314 17.06C192.714 17.3 191.984 17.77 191.124 18.47V29H187.674V19.22C187.674 17.54 187.034 16.7 185.754 16.7C185.254 16.7 184.704 16.82 184.104 17.06C183.504 17.3 182.774 17.77 181.914 18.47Z"
        fill="#5D6A09" />
    <path d="M16.375 14.125H1.42254C1.99318 7.4029 7.63023 2.125 14.5 2.125H16.375V14.125Z" stroke="#5D6A09"
        stroke-width="2.25" />
    <circle cx="11.125" cy="8.125" r="1.875" fill="#5D6A09" />
    <path d="M6.625 34.3175V18.625H16.375V23.5C16.375 29.1262 12.1025 33.7546 6.625 34.3175Z" stroke="#5D6A09"
        stroke-width="2.25" />
</svg>